# xmcd CD database file
#
# Track frame offsets:
#	150
#	14399
#	35758
#	55942
#	77534
#	88433
#	104192
#	129636
#	152153
#	174974
#	188871
#	218978
#	243730
#	264010
#
# Disc length: 3680 seconds
#
# Revision: 0
# Processed by: cddbd v1.5.1PL2 Copyright (c) Steve Scherf et al.
# Submitted via: CDex 1.51
#
DISCID=c50e5e0e
DTITLE=Compilation - Real Divas - Torch Light Vol 1
DYEAR=2003
DGENRE=Jazz
TTITLE0=Sara Latendresse - Just The Two Of Us
TTITLE1=Dawn Aitken - Until The Real Thing Comes Along
TTITLE2=Alex Pangman - Prisoner Of Love
TTITLE3=Melissa Stylianou - Jitterbug Waltz
TTITLE4=Susie Arioli - If Dreams Come True
TTITLE5=Beverley Staunton - Lush Life
TTITLE6=Emile-Claire Barlow - Mood Indigo
TTITLE7=Carol Welsman - Over The Rainbow
TTITLE8=Leah State - Sweet Lorraine
TTITLE9=Karin Plato - Takes Two To Tango
TTITLE10=Kate Hammett-Vaughan - You've Changed
TTITLE11=Tammy Weis - I've Got A Crush On You
TTITLE12=Jennifer Ryan - The Nearness Of You
TTITLE13=Jennifer Hanson - All The Way
EXTD=YEAR: 2003
EXTT0=
EXTT1=
EXTT2=
EXTT3=
EXTT4=
EXTT5=
EXTT6=
EXTT7=
EXTT8=
EXTT9=
EXTT10=
EXTT11=
EXTT12=
EXTT13=
PLAYORDER=
